<svg width="177" height="177" viewBox="0 0 177 177" fill="none" xmlns="http://www.w3.org/2000/svg">
<path d="M108.341 88.5056L142.059 122.224C144.249 124.414 144.249 127.971 142.059 130.161L130.161 142.059C127.971 144.25 124.42 144.25 122.224 142.059L88.5 108.341L54.7759 142.059C52.5856 144.25 49.0345 144.25 46.8441 142.059L34.9409 130.161C32.7505 127.971 32.7505 124.42 34.9409 122.224L68.6649 88.5056L34.9409 54.7816C32.7505 52.5912 32.7505 49.0346 34.9409 46.8442L46.8497 34.9465C49.04 32.7561 52.5911 32.7561 54.7815 34.9465L88.5 68.6705L122.224 34.9465C124.414 32.7561 127.965 32.7561 130.161 34.9465L142.059 46.8497C144.249 49.0401 144.249 52.5912 142.059 54.7871L108.341 88.5056Z" fill="#919191"/>
</svg>
